#N canvas 479 24 712 600 10;
#X declare -lib mrpeach;
#X obj 399 59 import mrpeach;
#X msg 184 131 bang;
#X obj 184 206 random 5;
#X floatatom 184 231 0 0 0 0 - - -;
#X msg 194 155 seed 123;
#X msg 226 181 127;
#X obj 185 397 udpsend;
#X obj 189 78 tgl 15 0 empty empty empty 17 7 0 10 -262144 -1 -1 0
1;
#X msg 250 365 connect 127.0.0.1 6655;
#X obj 174 359 packOSC;
#X msg 159 296 send /acc \$1 0.2 10;
#X obj 239 230 moses 64;
#X obj 183 104 metro 500;
#X msg 15 180 send /start fileA;
#X msg -13 237 send /start fileB;
#X obj 189 33 loadbang;
#X msg 189 56 1;
#X text 13 161 Log to fileA;
#X text -14 217 Log to fileB;
#X msg -30 327 send /stop;
#X text -33 296 Stop logging \, save file;
#X text 247 347 Change these to suit your needs:;
#X text 315 278 A string message;
#X text 155 276 Random bundle message;
#X obj 185 420 tgl 15 0 empty empty empty 17 7 0 10 -262144 -1 -1 1
1;
#X msg 310 296 send /word something;
#X connect 1 0 2 0;
#X connect 1 0 5 0;
#X connect 2 0 3 0;
#X connect 2 0 11 0;
#X connect 3 0 10 0;
#X connect 4 0 2 0;
#X connect 5 0 2 1;
#X connect 6 0 24 0;
#X connect 7 0 12 0;
#X connect 8 0 6 0;
#X connect 9 0 6 0;
#X connect 10 0 9 0;
#X connect 11 0 25 0;
#X connect 12 0 1 0;
#X connect 13 0 9 0;
#X connect 14 0 9 0;
#X connect 15 0 16 0;
#X connect 16 0 7 0;
#X connect 19 0 9 0;
#X connect 25 0 9 0;
